<?xml version="1.0" encoding="utf-8"?>
<!-- Generator: Adobe Illustrator 19.1.0, SVG Export Plug-In . SVG Version: 6.00 Build 0)  -->
<svg version="1.1" id="Layer_1" xmlns="http://www.w3.org/2000/svg" xmlns:xlink="http://www.w3.org/1999/xlink" x="0px" y="0px"
	 viewBox="-934 516 50 50" style="enable-background:new -934 516 50 50;" xml:space="preserve">
<title>Combined Shape</title>
<desc>Created with Sketch.</desc>
<g>
	<path d="M-912.1,552.4c-1.9,1.9-4.6,2.7-7.5,2.7h-10.3v-28.4h10.3c3,0,5.6,0.8,7.5,2.7c3.2,3.2,2.9,7.1,2.9,11.4
		S-908.9,549.2-912.1,552.4z M-915.9,533.4c-1-1.2-2.2-1.8-4.2-1.8h-4.2v18.5h4.2c1.9,0,3.2-0.6,4.2-1.8c1-1.3,1.2-3.3,1.2-7.6
		C-914.7,536.4-914.9,534.7-915.9,533.4z"/>
	<path d="M-893.2,555.1v-2c-1.4,1.6-3,2.2-5.2,2.2c-2,0-4-0.7-5.1-1.9c-2.1-2.1-2.1-5.7-2.1-8.8c0-3.1,0-6.7,2.1-8.7
		c1.2-1.2,3-1.9,5.1-1.9c2.1,0,3.7,0.6,5.1,2.1v-9.5h5.2v28.4H-893.2z M-896.9,538.7c-3.1,0-3.5,2.6-3.5,6c0,3.4,0.4,6,3.5,6
		c3.1,0,3.6-2.6,3.6-6C-893.3,541.3-893.8,538.7-896.9,538.7z"/>
</g>
</svg>
