<?xml version="1.0" encoding="utf-8"?>
<!-- Generator: Adobe Illustrator 22.1.0, SVG Export Plug-In . SVG Version: 6.00 Build 0)  -->
<svg version="1.1" id="Layer_1" xmlns="http://www.w3.org/2000/svg" xmlns:xlink="http://www.w3.org/1999/xlink" x="0px" y="0px"
	 viewBox="0 0 50 50" style="enable-background:new 0 0 50 50;" xml:space="preserve">
<title>Combined Shape</title>
<desc>Created with Sketch.</desc>
<g>
	<path d="M9.4,27.1v-4C8.8,23.7,8.1,24,7.2,24S5.5,23.7,5,23.2c-0.9-0.9-0.9-2.4-0.9-3.7s0-2.8,0.9-3.7C5.5,15.3,6.3,15,7.2,15
		s1.6,0.3,2.2,0.9v-0.8h2.2v12.1H9.4V27.1z M7.9,16.9c-1.3,0-1.5,1.1-1.5,2.5s0.2,2.5,1.5,2.5s1.5-1.1,1.5-2.5S9.2,16.9,7.9,16.9z"
		/>
	<path d="M18.2,17.5C17.9,17.2,17.6,17,17,17c-0.7,0-1.4,0.5-1.4,1.6v5.3h-2.2v-8.8h2.2v0.8c0.4-0.5,1.3-1,2.2-1s1.5,0.2,2.1,0.8
		L18.2,17.5z"/>
	<path d="M23.2,24c-1.4,0-2.6-0.2-3.8-1.3l1.4-1.4c0.7,0.7,1.7,0.8,2.4,0.8c0.8,0,1.6-0.3,1.6-0.9c0-0.4-0.2-0.7-0.9-0.8l-1.4-0.1
		c-1.6-0.2-2.6-0.8-2.6-2.5c0-1.8,1.6-2.8,3.4-2.8c1.4,0,2.5,0.2,3.4,1l-1.4,1.4c-0.5-0.5-1.3-0.6-2.1-0.6c-0.9,0-1.3,0.4-1.3,0.8
		c0,0.3,0.1,0.7,0.9,0.8l1.4,0.1c1.7,0.2,2.6,1.1,2.6,2.6C27,23.1,25.3,24,23.2,24z"/>
	<path d="M30.7,23.9c-1.8,0-2.6-1.3-2.6-2.5V17h-0.9v-1.7h0.9v-2.6h2.2v2.6h1.6V17h-1.6v4.2c0,0.5,0.2,0.8,0.8,0.8h0.8v1.9
		C31.9,23.9,30.7,23.9,30.7,23.9z"/>
	<path d="M38.3,23.9v-0.8c-0.6,0.6-1.4,0.9-2.2,0.9c-0.9,0-1.6-0.3-2.1-0.8c-0.7-0.7-0.9-1.5-0.9-2.5V15h2.2v5.3
		c0,1.2,0.8,1.6,1.5,1.6s1.5-0.4,1.5-1.6V15h2.2v8.8L38.3,23.9L38.3,23.9z"/>
	<path d="M8.4,37.5H6.7l-3.3-8.8h2.3l1.8,5.5l1.8-5.5h2.3L8.4,37.5z"/>
	<path d="M21.2,37.5h-1.8L17.6,32l-1.8,5.5H14l-2.7-8.8h2.3l1.4,5.5l1.8-5.5h1.6l1.8,5.5l1.4-5.5h2.3L21.2,37.5z"/>
	<path d="M29.3,37.5l-1.6-2.6l-1.6,2.6h-2.6l3.1-4.5l-2.9-4.3h2.6l1.5,2.5l1.5-2.5h2.6L29,33l3.1,4.5H29.3z"/>
	<path d="M36,38.9c-0.2,0.5-0.4,0.9-0.7,1.1c-0.5,0.5-1.2,0.7-1.9,0.7h-0.9v-2H33c0.6,0,0.9-0.2,1.1-0.8l0.4-1.1l-3-8.2h2.3l1.8,5.5
		l1.8-5.5h2.3L36,38.9z"/>
	<path d="M39.8,37.5v-1.7l3.9-5.2H40v-2h6.5v1.7l-4,5.2h4v2H39.8z"/>
</g>
</svg>
