<?xml version="1.0" encoding="utf-8"?>
<!-- Generator: Adobe Illustrator 22.1.0, SVG Export Plug-In . SVG Version: 6.00 Build 0)  -->
<svg version="1.1" id="Layer_1" xmlns="http://www.w3.org/2000/svg" xmlns:xlink="http://www.w3.org/1999/xlink" x="0px" y="0px"
	 viewBox="0 0 952 239.4" style="enable-background:new 0 0 952 239.4;" xml:space="preserve">
<style type="text/css">
	.st0{fill:#FFFFFF;}
</style>
<g>
	<path class="st0" d="M48.7,147.3v87.3H4.9V16.3h82.3c24.9,0,44.4,5.7,58.4,17c14,11.3,21.1,27.2,21.1,47.4c0,11.3-2.9,21-8.8,29.1
		c-5.9,8.1-14.5,14.6-25.9,19.6c12.9,3.8,22.2,10.1,27.8,19c5.6,8.9,8.5,19.9,8.5,33v16c0,6.1,0.8,12.5,2.5,19.1
		c1.6,6.6,4.5,11.6,8.5,14.8v3.1H134c-4-3.2-6.6-8.5-7.8-16c-1.2-7.5-1.8-14.6-1.8-21.3v-15.4c0-10.9-3-19.4-8.9-25.4
		c-5.9-6-14.3-9.1-25.1-9.1H48.7z M48.7,113.6h37.8c12.3,0,21.5-2.6,27.5-7.8c6-5.2,9.1-12.9,9.1-23.1c0-10-3-17.9-9.1-23.8
		C108,53,99,50,87.2,50H48.7V113.6z"/>
	<path class="st0" d="M191.4,152c0-24.2,6.7-44,20.2-59.4s32.2-23.2,56.1-23.2c24,0,42.8,7.7,56.4,23.1
		c13.6,15.4,20.4,35.2,20.4,59.5v3.1c0,24.4-6.8,44.3-20.3,59.6c-13.5,15.3-32.3,23-56.1,23c-24,0-42.8-7.7-56.3-23
		c-13.5-15.3-20.3-35.2-20.3-59.6V152z M235.1,155c0,14.8,2.6,26.6,7.8,35.6c5.2,8.9,13.6,13.4,25.2,13.4c11.3,0,19.6-4.5,24.8-13.5
		c5.2-9,7.9-20.8,7.9-35.5v-3.1c0-14.4-2.6-26.1-7.9-35.2c-5.3-9.1-13.6-13.6-25-13.6c-11.3,0-19.6,4.6-24.8,13.7
		c-5.2,9.1-7.9,20.8-7.9,35.1V155z"/>
	<path class="st0" d="M511.7,158c0,24.2-5.4,43.5-16.2,58c-10.8,14.5-26.4,21.7-46.8,21.7c-9.4,0-17.6-2-24.7-5.9
		c-7-3.9-13-9.7-17.9-17.3l-3.3,20.1h-37.5V0.7H409v88.9c4.7-6.5,10.3-11.5,16.9-15c6.5-3.5,14.1-5.2,22.6-5.2
		c20.6,0,36.3,7.8,47.1,23.3c10.8,15.5,16.2,36.3,16.2,62.1V158z M468.1,154.8c0-15.9-2.3-28.5-7-37.8c-4.6-9.3-12.6-14-23.8-14
		c-6.8,0-12.5,1.4-17.2,4.3c-4.7,2.9-8.4,7-11.1,12.3v69.1c2.7,4.9,6.4,8.7,11.2,11.3c4.7,2.6,10.6,3.9,17.5,3.9
		c11.3,0,19.2-4,23.7-12s6.7-19.3,6.7-34V154.8z"/>
	<path class="st0" d="M525.8,152c0-24.2,6.7-44,20.2-59.4c13.5-15.4,32.2-23.2,56.1-23.2c24,0,42.8,7.7,56.4,23.1
		c13.6,15.4,20.4,35.2,20.4,59.5v3.1c0,24.4-6.8,44.3-20.3,59.6c-13.5,15.3-32.3,23-56.1,23c-24,0-42.8-7.7-56.3-23
		c-13.5-15.3-20.3-35.2-20.3-59.6V152z M569.4,155c0,14.8,2.6,26.6,7.8,35.6c5.2,8.9,13.6,13.4,25.2,13.4c11.3,0,19.6-4.5,24.8-13.5
		c5.2-9,7.9-20.8,7.9-35.5v-3.1c0-14.4-2.6-26.1-7.9-35.2c-5.3-9.1-13.6-13.6-25-13.6c-11.3,0-19.6,4.6-24.8,13.7
		c-5.2,9.1-7.9,20.8-7.9,35.1V155z"/>
	<path class="st0" d="M751.7,32.6v39.7H779v30.7h-27.3v82.6c0,6.3,1.3,10.8,3.9,13.5c2.6,2.7,6.1,4,10.5,4c2.3,0,4.3-0.1,5.9-0.4
		c1.6-0.2,3.6-0.7,5.8-1.3l3.7,31.6c-4.4,1.5-8.7,2.6-12.9,3.4c-4.2,0.8-8.7,1.1-13.6,1.1c-15.1,0-26.7-4.1-34.9-12.4
		c-8.1-8.3-12.2-21.4-12.2-39.4v-82.8h-23.7V72.4h23.7V32.6H751.7z"/>
	<path class="st0" d="M794,152c0-24.2,6.7-44,20.2-59.4c13.5-15.4,32.2-23.2,56.1-23.2c24,0,42.8,7.7,56.4,23.1
		c13.6,15.4,20.4,35.2,20.4,59.5v3.1c0,24.4-6.8,44.3-20.3,59.6c-13.5,15.3-32.3,23-56.1,23c-24,0-42.8-7.7-56.3-23
		c-13.5-15.3-20.3-35.2-20.3-59.6V152z M837.6,155c0,14.8,2.6,26.6,7.8,35.6c5.2,8.9,13.6,13.4,25.2,13.4c11.3,0,19.6-4.5,24.8-13.5
		c5.2-9,7.9-20.8,7.9-35.5v-3.1c0-14.4-2.6-26.1-7.9-35.2c-5.3-9.1-13.6-13.6-25-13.6c-11.3,0-19.6,4.6-24.8,13.7
		c-5.2,9.1-7.9,20.8-7.9,35.1V155z"/>
</g>
</svg>
